<?xml version="1.0" encoding="UTF-8"?>
<!-- Created with Inkscape (http://www.inkscape.org/) -->
<svg width="78.1948mm" height="21.8712mm" version="1.1" viewBox="0 0 78.1948 21.8712" xmlns="http://www.w3.org/2000/svg">
 <g transform="translate(-75.3866 -149.269)">
  <g transform="matrix(.0352778 0 0 -.0352778 75.1127 171.42)" fill="#fff">
   <path d="m826.656 26.8516h13.75v-16.043h-13.75v16.043"/>
   <path d="m1118.94 26.8516h13.75v-16.043h-13.75v16.043"/>
   <path d="m1279.7 26.8516h13.75v-16.043h-13.75v16.043"/>
   <path d="m606.07 8.93359h-13.75l-15.332 61.7578h-0.293l-14.031-61.7578h-13.762l-19.336 73.0742h12.602l13.902-61.043h0.293l13.891 61.043h14.336l14.48-61.043h0.282l13.75 61.043h12.043l-19.075-73.0742"/>
   <path d="m705.66 8.93359h-13.758l-15.332 61.7578h-0.285l-14.043-61.7578h-13.758l-19.336 73.0742h12.61l13.894-61.043h0.293l13.907 61.043h14.304l14.477-61.043h0.301l13.75 61.043h12.019l-19.043-73.0742"/>
   <path d="m805.242 8.93359h-13.75l-15.344 61.7578h-0.281l-14.043-61.7578h-13.75l-19.336 73.0742h12.598l13.906-61.043h0.281l13.899 61.043h14.328l14.48-61.043h0.274l13.769 61.043h12.032l-19.063-73.0742"/>
   <path d="m862.129 82.0078h12.027v-73.0742h-12.027zm12.605 30.0902v-14.3285h-13.175v14.3285h13.175"/>
   <path d="m895.367 82.0078h12.031v-73.0742h-12.031zm12.61 30.0902v-14.3285h-13.196v14.3285h13.196"/>
   <path d="m965.293 44.7539c-2.141 0.2813-5.168 0.2813-8.457 0.2813-14.184 0-20.918-6.7266-20.918-15.1836 0-7.7344 4.004-12.7539 12.32-12.7539 10.461 0 17.055 8.457 17.055 18.4843zm-34.965 32.2344c6.027 3.8672 13.457 6.0156 20.625 6.0156 10.742 0 17.199-4.5781 19.492-6.875 3.157-3.1523 6.301-7.5976 6.301-17.9101v-38.1133c0-4.2969 0.281-8.5938 0.574-11.1719h-10.886l-0.704 9.88281h-0.292c-3.309-5.5859-9.329-10.8906-20.489-10.8906-12.043 0-21.074 7.02342-21.074 21.0664 0 14.1875 9.316 24.6484 34.395 24.6484h7.023v3.2891c0 5.4492-0.434 8.5937-2.727 11.75-2.441 3.3008-7.16 4.5898-12.168 4.5898-7.46 0-14.621-3.0078-18.781-7.5976l-1.289 11.3164"/>
   <path d="m992.066 23.1211c5.461-3.3008 11.184-5.4492 17.214-5.4492 9.17 0 13.88 4.7265 13.88 10.3125 0 5.0195-2.58 8.457-9.29 11.4648l-8.04 3.586c-10.463 4.7265-14.326 9.4531-14.326 18.7695 0 12.0312 9.316 21.1992 23.496 21.1992 6.02 0 11.33-0.9961 15.49-2.5781l-0.59-10.3125c-3.73 1.7187-8.88 3.1562-14.33 3.1562-7.88 0-12.04-4.2968-12.04-10.0312 0-5.8789 4.3-9.168 12.34-12.3242l4.28-1.7188c8.89-3.582 14.48-9.5976 14.48-18.6328 0-12.6055-6.73-22.6367-23.5-22.6367-7.6 0-14.474 1.58203-19.767 4.29692l0.703 10.8984"/>
   <path d="m1087.5 44.7539c-2.14 0.2813-5.15 0.2813-8.46 0.2813-14.18 0-20.92-6.7266-20.92-15.1836 0-7.7344 4.04-12.7539 12.33-12.7539 10.47 0 17.05 8.457 17.05 18.4843zm-34.96 32.2344c6.02 3.8672 13.48 6.0156 20.63 6.0156 10.76 0 17.2-4.5781 19.48-6.875 3.17-3.1523 6.31-7.5976 6.31-17.9101v-38.1133c0-4.2969 0.3-8.5938 0.58-11.1719h-10.89l-0.71 9.88281h-0.29c-3.29-5.5859-9.31-10.8906-20.49-10.8906-12.04 0-21.06 7.02342-21.06 21.0664 0 14.1875 9.31 24.6484 34.39 24.6484h7.01v3.2891c0 5.4492-0.43 8.5937-2.72 11.75-2.43 3.3008-7.16 4.5898-12.17 4.5898-7.46 0-14.62-3.0078-18.78-7.5976l-1.29 11.3164"/>
   <path d="m1191.1 44.7539c-2.16 0.2813-5.16 0.2813-8.46 0.2813-14.19 0-20.91-6.7266-20.91-15.1836 0-7.7344 4-12.7539 12.31-12.7539 10.45 0 17.06 8.457 17.06 18.4843zm-34.97 32.2344c6.03 3.8672 13.46 6.0156 20.63 6.0156 10.74 0 17.19-4.5781 19.49-6.875 3.15-3.1523 6.3-7.5976 6.3-17.9101v-38.1133c0-4.2969 0.28-8.5938 0.57-11.1719h-10.89l-0.7 9.88281h-0.29c-3.3-5.5859-9.33-10.8906-20.5-10.8906-12.03 0-21.05 7.02342-21.05 21.0664 0 14.1875 9.3 24.6484 34.38 24.6484h7.03v3.2891c0 5.4492-0.44 8.5937-2.73 11.75-2.43 3.3008-7.17 4.5898-12.17 4.5898-7.46 0-14.63-3.0078-18.78-7.5976l-1.29 11.3164"/>
   <path d="m1264.03 69.2539c-4.17 2.2969-8.33 3.4375-13.91 3.4375-11.74 0-20.05-8.1641-20.05-27.9375 0-16.9062 8.01-26.5039 19.76-26.5039 5.74 0 10.62 1.7188 14.76 3.8672l0.57-11.0352c-3.58-1.57419-10.02-3.15622-15.33-3.15622-21.77 0-32.38 16.1914-32.38 36.8281 0 23.6406 12.33 38.25 32.67 38.25 5.02 0 10.61-0.9961 14.47-2.8594l-0.56-10.8906"/>
   <path d="m1351.86 44.7539c-2.16 0.2813-5.16 0.2813-8.45 0.2813-14.2 0-20.92-6.7266-20.92-15.1836 0-7.7344 4-12.7539 12.32-12.7539 10.44 0 17.05 8.457 17.05 18.4843zm-34.96 32.2344c6.01 3.8672 13.46 6.0156 20.63 6.0156 10.74 0 17.19-4.5781 19.49-6.875 3.13-3.1523 6.3-7.5976 6.3-17.9101v-38.1133c0-4.2969 0.28-8.5938 0.57-11.1719h-10.9l-0.71 9.88281h-0.29c-3.29-5.5859-9.31-10.8906-20.49-10.8906-12.02 0-21.05 7.02342-21.05 21.0664 0 14.1875 9.3 24.6484 34.37 24.6484h7.04v3.2891c0 5.4492-0.43 8.5937-2.74 11.75-2.42 3.3008-7.16 4.5898-12.17 4.5898-7.46 0-14.62-3.0078-18.76-7.5976l-1.29 11.3164"/>
   <path d="m1414.03 9.79297c-2.87-1.00781-6.87-1.86719-10.16-1.86719-11.05 0-16.92 4.44532-16.92 17.3437v46.9922h-11.61v9.7461h11.61v14.9024l12.04 3.5738v-18.4762h15.04v-9.7461h-15.04v-43.125c0-8.3086 2.14-11.4648 7.59-11.4648 3.01 0 5.16 0.8594 7.45 1.8672v-9.74613"/>
   <path d="m539.566 532.859h15.278v-121.113h-15.278v121.113"/>
   <path d="m580.508 481.148c0 6.426-0.531 12.844-0.695 19.094h14.05l0.52-13.183h0.351c4.676 10.058 12.149 14.394 22.383 14.394 15.442 0 25.852-8.848 25.852-28.281v-61.426h-14.574v57.09c0 14.051-5.204 20.125-14.579 20.125-11.457 0-18.742-7.977-18.742-23.945v-53.27h-14.566v69.402"/>
   <path d="m704.883 412.789c-3.469-1.219-8.332-2.266-12.317-2.266-13.359 0-20.468 5.391-20.468 21.008v56.914h-14.063v11.797h14.063v18.047l14.57 4.336v-22.383h18.215v-11.797h-18.215v-52.226c0-10.078 2.605-13.887 9.187-13.887 3.657 0 6.25 1.043 9.028 2.266v-11.809"/>
   <path d="m765.242 462.762c0 18.386-5.722 27.586-17.344 27.586-9.375 0-17.707-6.942-18.039-27.586zm-35.383-11.106c0-20.468 7.981-30.027 24.114-30.027 7.285 0 15.273 3.652 20.3 7.293l0.696-13.184c-6.946-3.289-15.965-5.215-24.817-5.215-23.418 0-35.562 17.707-35.562 45.469 0 27.766 12.144 45.461 34.176 45.461 19.953 0 31.054-15.957 31.054-41.992v-7.805h-49.961"/>
   <path d="m797.664 481.148c0 6.426-0.519 12.844-0.684 19.094h14.051l0.512-13.887h0.348c4.679 10.762 12.152 15.098 25.16 15.098v-14.394c-1.731 0.339-3.645 0.515-5.547 0.515-11.274 0-19.27-9.715-19.27-28.984v-46.844h-14.57v69.402"/>
   <path d="m850.738 481.148c0 6.426-0.515 12.844-0.703 19.094h14.067l0.527-13.183h0.34c4.687 10.058 12.148 14.394 22.383 14.394 15.449 0 25.859-8.848 25.859-28.281v-61.426h-14.578v57.09c0 14.051-5.207 20.125-14.574 20.125-11.454 0-18.75-7.977-18.75-23.945v-53.27h-14.571v69.402"/>
   <path d="m981.883 455.125c-2.586 0.34-6.25 0.34-10.235 0.34-17.175 0-25.332-8.145-25.332-18.379 0-9.383 4.864-15.457 14.922-15.457 12.664 0 20.645 10.242 20.645 22.391zm-42.332 39.051c7.293 4.668 16.316 7.277 24.976 7.277 13.032 0 20.84-5.547 23.606-8.32 3.816-3.828 7.637-9.199 7.637-21.692v-46.16c0-5.195 0.339-10.41 0.703-13.535h-13.196l-0.867 11.973h-0.344c-3.992-6.758-11.289-13.196-24.824-13.196-14.566 0-25.496 8.516-25.496 25.52 0 17.176 11.277 29.844 41.641 29.844h8.496v3.992c0 6.594-0.508 10.402-3.289 14.23-2.961 3.993-8.672 5.555-14.746 5.555-9.028 0-17.707-3.652-22.739-9.199l-1.558 13.711"/>
   <path d="m1057.17 412.789c-3.48-1.219-8.34-2.266-12.33-2.266-13.36 0-20.48 5.391-20.48 21.008v56.914h-14.05v11.797h14.05v18.047l14.58 4.336v-22.383h18.23v-11.797h-18.23v-52.226c0-10.078 2.61-13.887 9.2-13.887 3.65 0 6.25 1.043 9.03 2.266v-11.809"/>
   <path d="m1072.59 500.242h14.58v-88.496h-14.58zm15.27 36.434v-17.344h-15.97v17.344h15.97"/>
   <path d="m1142.66 422.332c13.89 0 20.32 11.445 20.32 33.66 0 22.207-6.43 33.672-20.32 33.672-13.88 0-20.29-11.465-20.29-33.672 0-22.215 6.41-33.66 20.29-33.66zm0 79.121c23.44 0 35.57-17.695 35.57-45.461 0-27.762-12.13-45.469-35.57-45.469-23.41 0-35.56 17.707-35.56 45.469 0 27.766 12.15 45.461 35.56 45.461"/>
   <path d="m1196.78 481.148c0 6.426-0.52 12.844-0.71 19.094h14.06l0.53-13.183h0.34c4.69 10.058 12.15 14.394 22.39 14.394 15.45 0 25.86-8.848 25.86-28.281v-61.426h-14.58v57.09c0 14.051-5.22 20.125-14.58 20.125-11.45 0-18.74-7.977-18.74-23.945v-53.27h-14.57v69.402"/>
   <path d="m1327.92 455.125c-2.59 0.34-6.25 0.34-10.24 0.34-17.18 0-25.33-8.145-25.33-18.379 0-9.383 4.85-15.457 14.92-15.457 12.67 0 20.65 10.242 20.65 22.391zm-42.34 39.051c7.3 4.668 16.32 7.277 24.98 7.277 13.03 0 20.84-5.547 23.61-8.32 3.82-3.828 7.63-9.199 7.63-21.692v-46.16c0-5.195 0.36-10.41 0.71-13.535h-13.2l-0.86 11.973h-0.36c-3.98-6.758-11.28-13.196-24.81-13.196-14.57 0-25.5 8.516-25.5 25.52 0 17.176 11.28 29.844 41.64 29.844h8.5v3.992c0 6.594-0.51 10.402-3.29 14.23-2.96 3.993-8.68 5.555-14.75 5.555-9.02 0-17.7-3.652-22.73-9.199l-1.57 13.711"/>
   <path d="m1365.54 541.883h14.58v-130.137h-14.58v130.137"/>
   <path d="m1450.53 532.859h15.28v-121.113h-15.28v121.113"/>
   <path d="m1491.46 481.148c0 6.426-0.51 12.844-0.68 19.094h14.05l0.51-13.183h0.35c4.68 10.058 12.15 14.394 22.39 14.394 15.44 0 25.84-8.848 25.84-28.281v-61.426h-14.57v57.09c0 14.051-5.19 20.125-14.58 20.125-11.45 0-18.74-7.977-18.74-23.945v-53.27h-14.57v69.402"/>
   <path d="m1572.99 428.922c6.58-3.984 13.53-6.59 20.82-6.59 11.1 0 16.83 5.731 16.83 12.488 0 6.075-3.13 10.246-11.28 13.887l-9.72 4.336c-12.66 5.734-17.35 11.457-17.35 22.734 0 14.571 11.27 25.676 28.45 25.676 7.29 0 13.72-1.211 18.75-3.125l-0.69-12.492c-4.52 2.082-10.77 3.828-17.36 3.828-9.55 0-14.58-5.215-14.58-12.148 0-7.118 5.22-11.102 14.92-14.93l5.21-2.082c10.76-4.336 17.54-11.629 17.54-22.559 0-15.273-8.16-27.422-28.47-27.422-9.2 0-17.53 1.926-23.93 5.215l0.86 13.184"/>
   <path d="m1681.76 412.789c-3.48-1.219-8.33-2.266-12.33-2.266-13.37 0-20.48 5.391-20.48 21.008v56.914h-14.05v11.797h14.05v18.047l14.58 4.336v-22.383h18.23v-11.797h-18.23v-52.226c0-10.078 2.6-13.887 9.2-13.887 3.64 0 6.24 1.043 9.03 2.266v-11.809"/>
   <path d="m1697.19 500.242h14.56v-88.496h-14.56zm15.26 36.434v-17.344h-15.98v17.344h15.98"/>
   <path d="m1775.07 412.789c-3.47-1.219-8.32-2.266-12.32-2.266-13.37 0-20.48 5.391-20.48 21.008v56.914h-14.05v11.797h14.05v18.047l14.58 4.336v-22.383h18.22v-11.797h-18.22v-52.226c0-10.078 2.6-13.887 9.19-13.887 3.65 0 6.24 1.043 9.03 2.266v-11.809"/>
   <path d="m1851.57 430.828c0-6.418 0.53-12.832 0.69-19.082h-14.05l-0.52 13.192h-0.35c-4.69-10.067-12.15-14.415-22.39-14.415-15.43 0-25.84 8.86-25.84 28.293v61.426h14.56v-57.09c0-14.054 5.21-20.117 14.59-20.117 11.44 0 18.73 7.977 18.73 23.934v53.273h14.58v-69.414"/>
   <path d="m1913.48 412.789c-3.46-1.219-8.34-2.266-12.32-2.266-13.36 0-20.47 5.391-20.47 21.008v56.914h-14.05v11.797h14.05v18.047l14.57 4.336v-22.383h18.22v-11.797h-18.22v-52.226c0-10.078 2.61-13.887 9.2-13.887 3.64 0 6.25 1.043 9.02 2.266v-11.809"/>
   <path d="m1973.86 462.762c0 18.386-5.74 27.586-17.37 27.586-9.36 0-17.69-6.942-18.04-27.586zm-35.41-11.106c0-20.468 7.98-30.027 24.12-30.027 7.28 0 15.27 3.652 20.3 7.293l0.7-13.184c-6.95-3.289-15.97-5.215-24.82-5.215-23.42 0-35.57 17.707-35.57 45.469 0 27.766 12.15 45.461 34.19 45.461 19.95 0 31.06-15.957 31.06-41.992v-7.805h-49.98"/>
   <path d="m2055.88 488.445h-14.06v11.797h14.06v19.785c0 14.395 6.58 23.946 22.03 23.946 3.99 0 8.16-0.528 11.46-1.387v-12.492c-1.74 1.386-4.87 2.07-8.34 2.07-8.15 0-10.58-4.512-10.58-13.359v-18.563h15.96v-11.797h-15.96v-76.699h-14.57v76.699"/>
   <path d="m2130.82 422.332c13.88 0 20.3 11.445 20.3 33.66 0 22.207-6.42 33.672-20.3 33.672-13.89 0-20.3-11.465-20.3-33.672 0-22.215 6.41-33.66 20.3-33.66zm0 79.121c23.42 0 35.56-17.695 35.56-45.461 0-27.762-12.14-45.469-35.56-45.469-23.43 0-35.58 17.707-35.58 45.469 0 27.766 12.15 45.461 35.58 45.461"/>
   <path d="m2184.93 481.148c0 6.426-0.54 12.844-0.7 19.094h14.05l0.53-13.887h0.35c4.68 10.762 12.15 15.098 25.15 15.098v-14.394c-1.73 0.339-3.65 0.515-5.55 0.515-11.28 0-19.27-9.715-19.27-28.984v-46.844h-14.56v69.402"/>
   <path d="m596.727 269.754-18.575 60.391h-0.343l-19.09-60.391zm-9.891 76.355 39.559-121.121h-15.965l-9.719 31.582h-46.152l-9.727-31.582h-15.266l40.61 121.121h16.66"/>
   <path d="m672.691 235.574c13.352 0 19.426 11.453 19.426 33.66s-6.074 33.672-19.426 33.672c-13.367 0-19.441-11.465-19.441-33.672s6.074-33.66 19.441-33.66zm-34.019 61.602c0 5.371-0.52 10.926-0.695 16.316h14.05l0.532-13.027h0.339c3.821 6.953 10.411 14.23 23.25 14.23 18.215 0 30.54-14.914 30.54-45.461 0-30.535-12.325-45.457-30.54-45.457-10.066 0-16.648 3.993-22.554 13.36h-0.344v-49.629h-14.578v109.668"/>
   <path d="m757.852 235.574c13.359 0 19.429 11.453 19.429 33.66s-6.07 33.672-19.429 33.672c-13.372 0-19.446-11.465-19.446-33.672s6.074-33.66 19.446-33.66zm-34.016 61.602c0 5.371-0.52 10.926-0.695 16.316h14.054l0.528-13.027h0.332c3.828 6.953 10.422 14.23 23.254 14.23 18.218 0 30.543-14.914 30.543-45.461 0-30.535-12.325-45.457-30.543-45.457-10.059 0-16.641 3.993-22.551 13.36h-0.352v-49.629h-14.57v109.668"/>
   <path d="m811.773 355.125h14.575v-130.137h-14.575v130.137"/>
   <path d="m852.012 313.492h14.578v-88.504h-14.578zm15.269 36.438v-17.356h-15.965v17.356h15.965"/>
   <path d="m937.184 276.004c0 18.398-5.731 27.586-17.34 27.586-9.375 0-17.715-6.934-18.047-27.586zm-35.387-11.106c0-20.476 7.976-30.019 24.121-30.019 7.273 0 15.27 3.644 20.301 7.285l0.683-13.184c-6.933-3.289-15.957-5.203-24.812-5.203-23.418 0-35.57 17.696-35.57 45.457 0 27.766 12.152 45.461 34.179 45.461 19.953 0 31.059-15.957 31.059-41.992v-7.805h-49.961"/>
   <path d="m999.273 302.906c-13.355 0-19.429-11.465-19.429-33.672s6.074-33.66 19.429-33.66c13.357 0 19.437 11.453 19.437 33.66s-6.08 33.672-19.437 33.672zm34.017-61.601c0-5.391 0.52-10.938 0.68-16.317h-14.05l-0.51 13.016h-0.36c-3.81-6.941-10.41-14.227-23.249-14.227-18.215 0-30.539 14.922-30.539 45.457 0 30.547 12.324 45.461 30.539 45.461 10.069 0 16.659-3.984 22.569-13.351h0.34v53.781h14.58v-113.82"/>
   <path d="m1150.88 328.582c-5.73 3.477-13.2 5.555-20.65 5.555-11.45 0-18.92-7.813-18.92-18.047 0-7.813 3.12-12.664 20.48-22.723 18.74-10.762 24.99-21.347 24.99-35.234 0-19.258-11.98-34.356-35.23-34.356-9.71 0-18.91 2.078-25.33 5.203v15.793c6.93-4.171 15.96-7.812 23.07-7.812 13.73 0 21.53 9.199 21.53 19.082 0 9.375-2.43 14.754-18.75 24.648-21.87 13.192-26.72 20.653-26.72 36.27 0 19.949 15.27 30.359 33.67 30.359 7.98 0 16.47-1.738 21.86-3.984v-14.754"/>
   <path d="m1204.63 206.949c-4.33-15.097-10.57-20.488-21.68-20.488-3.48 0-7.29 0.363-9.9 1.047l0.71 13.191c2.24-1.043 4.85-1.726 7.98-1.726 4.16 0 7.28 1.902 9.7 11.101l3.48 13.535-27.94 89.883h15.27l19.79-72.187h0.34l18.39 72.187h14.58l-30.72-106.543"/>
   <path d="m1245.38 242.164c6.6-3.984 13.53-6.59 20.83-6.59 11.1 0 16.82 5.731 16.82 12.489 0 6.074-3.12 10.246-11.27 13.886l-9.72 4.336c-12.67 5.735-17.35 11.445-17.35 22.735 0 14.57 11.27 25.675 28.45 25.675 7.3 0 13.71-1.203 18.74-3.125l-0.69-12.492c-4.5 2.09-10.75 3.828-17.35 3.828-9.54 0-14.57-5.215-14.57-12.148 0-7.117 5.21-11.102 14.92-14.93l5.2-2.082c10.75-4.336 17.53-11.629 17.53-22.558 0-15.274-8.16-27.411-28.46-27.411-9.19 0-17.52 1.914-23.94 5.203l0.86 13.184"/>
   <path d="m1354.15 226.031c-3.47-1.218-8.32-2.254-12.32-2.254-13.36 0-20.47 5.379-20.47 20.996v56.915h-14.06v11.804h14.06v18.039l14.59 4.336v-22.375h18.2v-11.804h-18.2v-52.227c0-10.07 2.58-13.887 9.17-13.887 3.66 0 6.25 1.043 9.03 2.266v-11.809"/>
   <path d="m1414.52 276.004c0 18.398-5.73 27.586-17.35 27.586-9.38 0-17.71-6.934-18.05-27.586zm-35.4-11.106c0-20.476 7.98-30.019 24.12-30.019 7.29 0 15.27 3.644 20.3 7.285l0.69-13.184c-6.94-3.289-15.96-5.203-24.81-5.203-23.43 0-35.57 17.696-35.57 45.457 0 27.766 12.14 45.461 34.18 45.461 19.96 0 31.07-15.957 31.07-41.992v-7.805h-49.98"/>
   <path d="m1446.93 294.402c0 6.414-0.52 12.84-0.69 19.09h14.05l0.53-13.191h0.34c4.69 10.066 12.15 14.394 21.87 14.394 9.36 0 16.29-4.855 20.82-13.879 4.67 8.684 11.45 13.879 21.51 13.879 15.27 0 25.68-8.84 25.68-28.281v-61.426h-14.58v60.742c0 11.27-4.85 16.473-13.52 16.473-10.75 0-16.66-6.59-16.66-22.547v-54.668h-14.57v60.742c0 11.27-4.87 16.473-13.55 16.473-10.75 0-16.65-6.59-16.65-22.547v-54.668h-14.58v69.414"/>
   <path d="m1570.09 242.164c6.59-3.984 13.53-6.59 20.82-6.59 11.1 0 16.83 5.731 16.83 12.489 0 6.074-3.12 10.246-11.28 13.886l-9.72 4.336c-12.67 5.735-17.35 11.445-17.35 22.735 0 14.57 11.27 25.675 28.46 25.675 7.27 0 13.7-1.203 18.74-3.125l-0.69-12.492c-4.53 2.09-10.78 3.828-17.36 3.828-9.55 0-14.58-5.215-14.58-12.148 0-7.117 5.21-11.102 14.92-14.93l5.2-2.082c10.78-4.336 17.54-11.629 17.54-22.558 0-15.274-8.16-27.411-28.47-27.411-9.19 0-17.52 1.914-23.93 5.203l0.87 13.184"/>
   <path d="m1731.58 269.754-18.55 60.391h-0.36l-19.08-60.391zm-9.88 76.355 39.57-121.121h-15.97l-9.72 31.582h-46.16l-9.71-31.582h-15.27l40.61 121.121h16.65"/>
   <path d="m1774.93 294.402c0 6.414-0.52 12.84-0.69 19.09h14.05l0.53-13.191h0.34c4.69 10.066 12.15 14.394 22.38 14.394 15.45 0 25.86-8.84 25.86-28.281v-61.426h-14.58v57.09c0 14.051-5.2 20.125-14.57 20.125-11.46 0-18.75-7.976-18.75-23.945v-53.27h-14.57v69.414"/>
   <path d="m1906.07 268.367c-2.59 0.352-6.25 0.352-10.23 0.352-17.18 0-25.33-8.156-25.33-18.391 0-9.375 4.86-15.449 14.92-15.449 12.66 0 20.64 10.234 20.64 22.383zm-42.33 39.051c7.29 4.68 16.32 7.277 24.98 7.277 13.03 0 20.84-5.547 23.6-8.32 3.82-3.828 7.64-9.199 7.64-21.691v-46.161c0-5.207 0.35-10.41 0.7-13.535h-13.19l-0.87 11.973h-0.34c-4-6.758-11.29-13.184-24.83-13.184-14.57 0-25.49 8.504-25.49 25.508 0 17.176 11.27 29.844 41.64 29.844h8.49v3.992c0 6.594-0.51 10.41-3.29 14.231-2.96 3.992-8.67 5.554-14.75 5.554-9.02 0-17.7-3.652-22.73-9.199l-1.56 13.711"/>
   <path d="m1943.7 355.125h14.58v-130.137h-14.58v130.137"/>
   <path d="m2010.31 206.949c-4.34-15.097-10.59-20.488-21.69-20.488-3.47 0-7.29 0.363-9.88 1.047l0.68 13.191c2.27-1.043 4.86-1.726 7.98-1.726 4.17 0 7.3 1.902 9.73 11.101l3.46 13.535-27.93 89.883h15.28l19.76-72.187h0.36l18.39 72.187h14.57l-30.71-106.543"/>
   <path d="m2051.06 242.164c6.58-3.984 13.54-6.59 20.82-6.59 11.11 0 16.83 5.731 16.83 12.489 0 6.074-3.13 10.246-11.27 13.886l-9.73 4.336c-12.65 5.735-17.34 11.445-17.34 22.735 0 14.57 11.27 25.675 28.45 25.675 7.29 0 13.72-1.203 18.75-3.125l-0.7-12.492c-4.51 2.09-10.76 3.828-17.36 3.828-9.54 0-14.57-5.215-14.57-12.148 0-7.117 5.2-11.102 14.92-14.93l5.21-2.082c10.76-4.336 17.53-11.629 17.53-22.558 0-15.274-8.16-27.411-28.46-27.411-9.2 0-17.53 1.914-23.94 5.203l0.86 13.184"/>
   <path d="m2122.18 313.492h14.58v-88.504h-14.58zm15.27 36.438v-17.356h-15.97v17.356h15.97"/>
   <path d="m2157.2 242.164c6.6-3.984 13.54-6.59 20.83-6.59 11.11 0 16.82 5.731 16.82 12.489 0 6.074-3.12 10.246-11.27 13.886l-9.71 4.336c-12.67 5.735-17.36 11.445-17.36 22.735 0 14.57 11.28 25.675 28.46 25.675 7.29 0 13.71-1.203 18.74-3.125l-0.69-12.492c-4.51 2.09-10.76 3.828-17.37 3.828-9.53 0-14.56-5.215-14.56-12.148 0-7.117 5.22-11.102 14.92-14.93l5.21-2.082c10.75-4.336 17.52-11.629 17.52-22.558 0-15.274-8.16-27.411-28.45-27.411-9.2 0-17.53 1.914-23.94 5.203l0.85 13.184"/>
   <path d="m258.16 553.641c-67.597 0-126.324-38.164-155.883-94.075l311.703 0.079c-29.539 55.832-88.21 93.957-155.82 93.996"/>
   <path d="m434.207 384.391c-0.48 13.019-2.336 25.547-5.469 37.648l-326.347 37.527c-12.9808-24.558-20.3715-52.539-20.3715-82.246 0-15.3 1.9688-30.203 5.6485-44.414l163.496-18.926 0.039 70.411h183.004"/>
   <path d="m102.277 295.145c28.536-53.918 84.203-91.211 148.778-93.711v93.75l-148.778-0.039"/>
   <path d="m414.09 295.223c11.887 22.586 19.023 48.027 20.144 75.097h-168.968v-57.929l148.824-17.168"/>
   <path d="m414.09 295.223-148.824-0.039v-93.75c64.621 2.5 120.297 39.793 148.824 93.789"/>
   <path d="m20.168 191.434h-12.4024v436.464h426.468v-12.402h-414.066v-424.062"/>
   <path d="m8.26563 131.266h12.4024v-121.688h-12.4024v121.688"/>
   <path d="m108.801 131.266h12.418v-121.688h-12.418v121.688"/>
   <path d="m222.477 51.1094-6.782 51.0156h-0.281l-6.781-51.0156zm-13.274 80.8786h12.84l18.043-122.41h-11.977l-3.464 26.961h-17.899l-3.754-26.961h-11.976l18.187 122.41"/>
   <path d="m300.297 28.875c3.457-4.1914 7.207-6.7383 10.824-6.7383 5.188 0 9.395 5.293 9.395 11.8555 0 18.7773-20.805 46.082-20.805 71.0348 0 16.426 8.086 27.891 19.633 27.891 3.472 0 6.351-0.93 10.394-3.293v-14.734c-3.75 2.714-5.781 3.816-8.652 3.816-6.066 0-9.391-3.816-9.391-11.668 0-19.2968 20.782-45.539 20.782-71.0546 0-16.5625-8.079-28.0586-19.918-28.0586-4.325 0-8.075 1.46485-12.262 4.73832v16.2109"/>
   <path d="m423.563 51.1094-6.79 51.0156h-0.269l-6.801-51.0156zm-13.293 80.8786h12.851l18.051-122.41h-11.977l-3.472 26.961h-17.903l-3.75-26.961h-11.972l18.172 122.41"/>
  </g>
 </g>
</svg>
